<mxfile host="www.draw.io" modified="2020-01-02T00:56:02.083Z" agent="Mozilla/5.0 (Windows NT 10.0; Win64; x64) AppleWebKit/537.36 (KHTML, like Gecko) Chrome/79.0.3945.88 Safari/537.36" etag="OQQ_ujSXhcX8cpiyrATy" version="12.4.8" type="github">
  <diagram id="9e0iesnKV-6r3H7dlG9C" name="Page-1">
    <mxGraphModel dx="1038" dy="531" grid="1" gridSize="10" guides="1" tooltips="1" connect="1" arrows="1" fold="1" page="1" pageScale="1" pageWidth="850" pageHeight="1100" math="0" shadow="0">
      <root>
        <mxCell id="0"/>
        <mxCell id="1" parent="0"/>
        <mxCell id="-caYTM9h2Zdz6IcF5Yr3-3" value="" style="edgeStyle=orthogonalEdgeStyle;rounded=0;orthogonalLoop=1;jettySize=auto;html=1;" edge="1" parent="1" source="-caYTM9h2Zdz6IcF5Yr3-1" target="-caYTM9h2Zdz6IcF5Yr3-2">
          <mxGeometry relative="1" as="geometry"/>
        </mxCell>
        <mxCell id="-caYTM9h2Zdz6IcF5Yr3-1" value="" style="outlineConnect=0;fontColor=#232F3E;gradientColor=#F78E04;gradientDirection=north;fillColor=#D05C17;strokeColor=#ffffff;dashed=0;verticalLabelPosition=bottom;verticalAlign=top;align=center;html=1;fontSize=12;fontStyle=0;aspect=fixed;shape=mxgraph.aws4.resourceIcon;resIcon=mxgraph.aws4.ec2;" vertex="1" parent="1">
          <mxGeometry x="180" y="60" width="78" height="78" as="geometry"/>
        </mxCell>
        <mxCell id="-caYTM9h2Zdz6IcF5Yr3-2" value="" style="outlineConnect=0;fontColor=#232F3E;gradientColor=#60A337;gradientDirection=north;fillColor=#277116;strokeColor=#ffffff;dashed=0;verticalLabelPosition=bottom;verticalAlign=top;align=center;html=1;fontSize=12;fontStyle=0;aspect=fixed;shape=mxgraph.aws4.resourceIcon;resIcon=mxgraph.aws4.s3;" vertex="1" parent="1">
          <mxGeometry x="310" y="60" width="78" height="78" as="geometry"/>
        </mxCell>
        <mxCell id="-caYTM9h2Zdz6IcF5Yr3-6" value="" style="edgeStyle=orthogonalEdgeStyle;rounded=0;orthogonalLoop=1;jettySize=auto;html=1;" edge="1" parent="1" source="-caYTM9h2Zdz6IcF5Yr3-5" target="-caYTM9h2Zdz6IcF5Yr3-1">
          <mxGeometry relative="1" as="geometry"/>
        </mxCell>
        <mxCell id="-caYTM9h2Zdz6IcF5Yr3-5" value="" style="html=1;dashed=0;whitespace=wrap;fillColor=#2875E2;strokeColor=#ffffff;points=[[0.005,0.63,0],[0.1,0.2,0],[0.9,0.2,0],[0.5,0,0],[0.995,0.63,0],[0.72,0.99,0],[0.5,1,0],[0.28,0.99,0]];shape=mxgraph.kubernetes.icon;prIcon=ing" vertex="1" parent="1">
          <mxGeometry x="80" y="75" width="50" height="48" as="geometry"/>
        </mxCell>
      </root>
    </mxGraphModel>
  </diagram>
</mxfile>
